<svg xmlns="http://www.w3.org/2000/svg" width="25" height="25" viewBox="0 0 25 25"><path d="M236.751,107.71a1.042,1.042,0,1,1-1.042-1.042A1.042,1.042,0,0,1,236.751,107.71Zm0,0" transform="translate(-223.21 -101.46)"/><path d="M205.272,202.417a.782.782,0,0,1-.781-.781v-8.073h-1.042a.781.781,0,1,1,0-1.562h1.823a.782.782,0,0,1,.781.781v8.854A.782.782,0,0,1,205.272,202.417Zm0,0" transform="translate(-192.772 -182.625)"/><path d="M12.5,25A12.5,12.5,0,1,1,25,12.5,12.514,12.514,0,0,1,12.5,25Zm0-23.437A10.938,10.938,0,1,0,23.438,12.5,10.95,10.95,0,0,0,12.5,1.563Zm0,0"/><path d="M197.469,374.894h-4.687a.781.781,0,0,1,0-1.562h4.688a.781.781,0,0,1,0,1.563Zm0,0" transform="translate(-182.625 -355.103)"/></svg>