<svg xmlns="http://www.w3.org/2000/svg" width="159" height="159" viewBox="0 0 159 159"><defs><style>.a{fill:#56c8e8;}.b{fill:#fff;}</style></defs><g transform="translate(-486 -565)"><circle class="a" cx="79.5" cy="79.5" r="79.5" transform="translate(486 565)"/><g transform="translate(398.901 444.126)"><g transform="translate(128.098 175.874)"><path class="b" d="M203.651,177.4a5.018,5.018,0,0,0-7.214,0l-39.56,39.561-20.035-20.035a5.1,5.1,0,1,0-7.214,7.214l23.642,23.642a4.652,4.652,0,0,0,3.607,1.529,4.711,4.711,0,0,0,3.607-1.529l43.168-43.167A5.019,5.019,0,0,0,203.651,177.4Z" transform="translate(-128.098 -175.874)"/></g></g></g></svg>