<svg xmlns="http://www.w3.org/2000/svg" width="81.92" height="50" viewBox="0 0 81.92 50"><defs><style>.a{fill:rgba(86,200,232,0.22);}</style></defs><g transform="translate(-864.08 -2248)"><circle class="a" cx="25" cy="25" r="25" transform="translate(896 2248)"/><g transform="translate(864.08 2256.034)"><g transform="translate(0 0)"><path d="M51.232,108.835l-1.427-5.706a.863.863,0,0,0,.683-.843v-.92a3.627,3.627,0,0,0-3.623-3.623h-6.5v-1.9a1.785,1.785,0,0,0-1.783-1.783H5.463A1.785,1.785,0,0,0,3.68,95.845v15.641a.863.863,0,0,0,1.725,0V95.845a.057.057,0,0,1,.057-.057H38.585a.057.057,0,0,1,.057.057v15.641a.863.863,0,1,0,1.725,0v-.978h10.18a2.823,2.823,0,0,1,2.68,1.955H50.546a.863.863,0,0,0-.863.863v1.84a2.706,2.706,0,0,0,2.7,2.7h.978v3.8H51.108a5.461,5.461,0,0,0-10.325,0h-.415v-6.5a.863.863,0,0,0-1.725,0v6.5h-17.9a5.461,5.461,0,0,0-10.325,0H5.463a.057.057,0,0,1-.057-.057v-1.9H9.143a.863.863,0,0,0,0-1.725H.863a.863.863,0,0,0,0,1.725H3.68v1.9a1.785,1.785,0,0,0,1.783,1.783h4.659c0,.019,0,.038,0,.057a5.463,5.463,0,0,0,10.926,0c0-.019,0-.038,0-.057H40.484c0,.019,0,.038,0,.057a5.463,5.463,0,0,0,10.926,0c0-.019,0-.038,0-.057h2.819a.863.863,0,0,0,.863-.863v-9.2A4.55,4.55,0,0,0,51.232,108.835ZM40.368,99.467h6.5a1.9,1.9,0,0,1,1.9,1.9v.057h-8.4Zm0,9.316v-5.635h7.665l1.409,5.635Zm-24.784,18.4a3.738,3.738,0,1,1,3.738-3.738A3.742,3.742,0,0,1,15.584,127.184Zm30.362,0a3.738,3.738,0,1,1,3.738-3.738A3.742,3.742,0,0,1,45.946,127.184Zm7.418-11.041h-.978a.979.979,0,0,1-.978-.978v-.978h1.955v1.955Z" transform="translate(0 -94.062)"/></g><g transform="translate(13.801 27.602)"><path d="M130.05,350.6a1.783,1.783,0,1,0,1.783,1.783A1.785,1.785,0,0,0,130.05,350.6Z" transform="translate(-128.267 -350.597)"/></g><g transform="translate(44.163 27.602)"><path d="M412.238,350.6a1.783,1.783,0,1,0,1.783,1.783A1.785,1.785,0,0,0,412.238,350.6Z" transform="translate(-410.455 -350.597)"/></g><g transform="translate(22.081 23.922)"><path d="M218.97,316.393H206.09a.863.863,0,1,0,0,1.725H218.97a.863.863,0,1,0,0-1.725Z" transform="translate(-205.227 -316.393)"/></g><g transform="translate(1.84 20.241)"><path d="M29.005,282.188H17.965a.863.863,0,0,0,0,1.725H29.005a.863.863,0,0,0,0-1.725Z" transform="translate(-17.102 -282.188)"/></g><g transform="translate(15.641 8.281)"><path d="M159.723,171.275a.863.863,0,0,0-1.22,0l-7.671,7.671-3.99-3.99a.863.863,0,1,0-1.22,1.22l4.6,4.6a.862.862,0,0,0,1.22,0l8.281-8.281A.863.863,0,0,0,159.723,171.275Z" transform="translate(-145.37 -171.023)"/></g></g></g></svg>