<svg xmlns="http://www.w3.org/2000/svg" width="131.935" height="131.938" viewBox="0 0 131.935 131.938"><defs><style>.a{fill:#fff;}.b{fill:#54c8e8;}.c{fill:#ca8342;}</style></defs><g transform="translate(-97.28 31.563)"><path class="a" d="M155.375,122.2h4.235V101.1l-4.235.7Z" transform="translate(45.697 -61.625)"/><g transform="translate(97.28 -31.563)"><path class="a" d="M150.074,177.9a63.167,63.167,0,1,1,63.165-63.166A63.236,63.236,0,0,1,150.074,177.9m0-123.039a59.872,59.872,0,1,0,59.871,59.872,59.94,59.94,0,0,0-59.871-59.872" transform="translate(-81.305 -51.566)"/><path class="b" d="M146.166,177.9a63.167,63.167,0,1,1,63.166-63.166A63.237,63.237,0,0,1,146.166,177.9m0-123.039a59.872,59.872,0,1,0,59.872,59.872,59.939,59.939,0,0,0-59.872-59.872" transform="translate(-83.001 -51.566)"/><path class="c" d="M146.166,181.807a63.167,63.167,0,1,1,63.166-63.168,63.237,63.237,0,0,1-63.166,63.168m0-123.039a59.872,59.872,0,1,0,59.872,59.871,59.939,59.939,0,0,0-59.872-59.871" transform="translate(-83.001 -49.87)"/><path class="a" d="M106.987,100.176a6.3,6.3,0,0,0,5.23-2.273l.085,1.939h4.192V83.1l-4.192.7-.085,1.939a6.354,6.354,0,0,0-5.23-2.273c-4.41,0-7.734,3.46-7.734,8.322s3.324,8.385,7.734,8.385m.836-12.881a4.306,4.306,0,0,1,4.377,4.5,4.366,4.366,0,0,1-4.377,4.578,4.3,4.3,0,0,1-4.308-4.578,4.243,4.243,0,0,1,4.308-4.5" transform="translate(-75.946 -37.875)"/><path class="a" d="M118.388,93.812a3.334,3.334,0,0,1,3.542-3.426,3.137,3.137,0,0,1,3.274,3.426v8.97H129.5V92.709a5.964,5.964,0,0,0-6.3-6.3,6.2,6.2,0,0,0-4.811,2.038V76.33l-4.294.7v25.754h4.294Z" transform="translate(-69.503 -40.816)"/><path class="a" d="M131.825,76.33l-4.277.7v25.754h4.277Z" transform="translate(-63.663 -40.816)"/><path class="a" d="M140.477,100.176a6.3,6.3,0,0,0,5.23-2.273l.083,1.939h4.193V83.1l-4.193.7-.083,1.939a6.356,6.356,0,0,0-5.23-2.273c-4.41,0-7.734,3.46-7.734,8.322s3.324,8.385,7.734,8.385m.836-12.881a4.307,4.307,0,0,1,4.377,4.5,4.367,4.367,0,0,1-4.377,4.578A4.3,4.3,0,0,1,137,91.79a4.244,4.244,0,0,1,4.309-4.5" transform="translate(-61.408 -37.875)"/><path class="a" d="M158.727,90.871v8.97h4.294V89.768a5.972,5.972,0,0,0-6.331-6.3,6.116,6.116,0,0,0-4.946,2.19L151.66,83.1l-4.077.7V99.841h4.278v-8.97a3.339,3.339,0,0,1,3.558-3.426,3.154,3.154,0,0,1,3.308,3.426" transform="translate(-54.966 -37.875)"/><path class="a" d="M99.789,103.275l5.921-1.159v-1.8l-5.921,1.158Z" transform="translate(-75.713 -30.404)"/><path class="a" d="M105.71,98.429l-5.921,1.159v1.8l5.921-1.159Z" transform="translate(-75.713 -31.223)"/><path class="a" d="M169.268,106.132a12.041,12.041,0,0,0-6.2-1.512,24.735,24.735,0,0,0-4.285.4q-2.261.4-4.784,1.03l.366,3.555q2.857-.465,4.6-.714a22.192,22.192,0,0,1,3.106-.25,9.357,9.357,0,0,1,5.531,1.727q2.442,1.73,2.441,6.246v3.156h-3.122V119.1a6.783,6.783,0,0,0-.88-3.321,6.976,6.976,0,0,0-2.442-2.576,6.487,6.487,0,0,0-3.521-.98,6.653,6.653,0,0,0-3.554.98,6.984,6.984,0,0,0-3.356,5.93v.631H138.563c-1.681,0-2.642-.816-2.642-2.5V97.368l-4.328.66V117.2c0,1.75-.822,2.566-2.537,2.566h-12.6V103.074l-4.208.7v15.995H99.366v4.053h29.76v0a6.617,6.617,0,0,0,4.5-1.676,6.593,6.593,0,0,0,4.492,1.681H174.5v-7.209a14.039,14.039,0,0,0-1.329-6.261,9.781,9.781,0,0,0-3.9-4.219m-6.793,13.637h-4.817v-.7a2.978,2.978,0,0,1,.681-1.978,2.138,2.138,0,0,1,1.711-.813,2.2,2.2,0,0,1,1.727.8,2.874,2.874,0,0,1,.7,1.96Z" transform="translate(-75.897 -31.683)"/><path class="a" d="M160.169,99.546l-2.786.741a1.342,1.342,0,0,1-.614-1.15,1.289,1.289,0,0,1,1.329-1.3,1.656,1.656,0,0,1,.638.115,1.614,1.614,0,0,1,.436.242l.333-1.535a3.8,3.8,0,0,0-1.995-.614,2.586,2.586,0,0,0-1.93.767,2.5,2.5,0,0,0-.754,1.814,2.607,2.607,0,0,0,1,2.071l-1.177.307.283,1.2,5.6-1.1Z" transform="translate(-51.9 -32.258)"/></g></g></svg>