<svg xmlns="http://www.w3.org/2000/svg" width="26.186" height="26.186" viewBox="0 0 26.186 26.186"><defs><style>.a{fill:#fbbd00;}.b{fill:#0f9d58;}.c{fill:#31aa52;}.d{fill:#3c79e6;}.e{fill:#cf2d48;}.f{fill:#eb4132;}</style></defs><path class="a" d="M6.137,108.182a6.913,6.913,0,0,1,.978-3.553v-4.414H2.7a13.1,13.1,0,0,0,0,15.935H7.116v-4.414A6.913,6.913,0,0,1,6.137,108.182Z" transform="translate(0 -95.09)"/><path class="b" d="M199.069,373.935,196,377l3.069,3.069a12.994,12.994,0,0,0,7.967-2.7v-4.409h-4.409A6.955,6.955,0,0,1,199.069,373.935Z" transform="translate(-185.976 -353.886)"/><path class="c" d="M57.237,325.477l-4.414,4.414a13.313,13.313,0,0,0,1.133,1.291,13.008,13.008,0,0,0,9.258,3.835v-6.137A6.958,6.958,0,0,1,57.237,325.477Z" transform="translate(-50.121 -308.831)"/><path class="d" d="M269.093,200.325a13.2,13.2,0,0,0-.214-2.372l-.115-.629H256v6.137h6.212a6.924,6.924,0,0,1-2.654,2.846l4.41,4.409a13.294,13.294,0,0,0,1.291-1.133A13.007,13.007,0,0,0,269.093,200.325Z" transform="translate(-242.907 -187.232)"/><path class="e" d="M203.987,8.175l.542.542,4.34-4.34-.542-.542A13.007,13.007,0,0,0,199.069,0L196,3.069l3.069,3.069A6.91,6.91,0,0,1,203.987,8.175Z" transform="translate(-185.976 0)"/><path class="f" d="M63.213,6.137V0a13.008,13.008,0,0,0-9.258,3.835,13.288,13.288,0,0,0-1.133,1.291L57.236,9.54a6.959,6.959,0,0,1,5.977-3.4Z" transform="translate(-50.12 0)"/></svg>