<svg xmlns="http://www.w3.org/2000/svg" width="12" height="19.424" viewBox="0 0 12 19.424">
  <g id="Group_6569" data-name="Group 6569" transform="translate(-1529.05 -441.95)">
    <g id="Group_6568" data-name="Group 6568">
      <g id="Group_4347" data-name="Group 4347" transform="translate(13671 13643)">
        <g id="right-arrow_2_" data-name="right-arrow(2)" transform="translate(-12123.45 -13221.45) rotate(90)">
          <path id="Path_2099" data-name="Path 2099" d="M34.124,18.376a.425.425,0,0,1-.6,0,.425.425,0,0,1,0-.6L38.8,12.5,33.524,7.224a.424.424,0,1,1,.6-.6L39.7,12.2a.425.425,0,0,1,0,.6Z" fill="#747474"/>
        </g>
        <g id="right-arrow_2_2" data-name="right-arrow(2)" transform="translate(-12148.45 -13161.226) rotate(-90)">
          <path id="Path_2099-2" data-name="Path 2099" d="M34.124,18.376a.425.425,0,0,1-.6,0,.425.425,0,0,1,0-.6L38.8,12.5,33.524,7.224a.424.424,0,1,1,.6-.6L39.7,12.2a.425.425,0,0,1,0,.6Z" fill="#747474"/>
        </g>
      </g>
    </g>
  </g>
</svg>
