<svg xmlns="http://www.w3.org/2000/svg" width="19.833" height="17" viewBox="0 0 19.833 17"><defs><style>.a{fill:#3cc8b4;}.b{fill:#1eaa96;}.c{fill:#fab400;}.d{fill:#dc9600;}.e{fill:#f0f0f0;}.f{fill:#505050;}.g{fill:#3c3c3c;}.h{fill:#fa6450;}.i{fill:#008c78;}</style></defs><g transform="translate(-4 -12)"><g transform="translate(4 12)"><path class="a" d="M14.625,21.917a4.953,4.953,0,0,1,9.208-2.541V13.417A1.417,1.417,0,0,0,22.417,12h-17A1.417,1.417,0,0,0,4,13.417V24.75a1.417,1.417,0,0,0,1.417,1.417H17.039A4.955,4.955,0,0,1,14.625,21.917Z" transform="translate(-4 -12)"/><path class="b" d="M5.417,24.75V13.417A1.417,1.417,0,0,1,6.833,12H5.417A1.417,1.417,0,0,0,4,13.417V24.75a1.417,1.417,0,0,0,1.417,1.417H6.833A1.417,1.417,0,0,1,5.417,24.75Z" transform="translate(-4 -12)"/><g transform="translate(0 2.125)"><path class="c" d="M4,18H23.833v2.125H4Z" transform="translate(-4 -18)"/></g><g transform="translate(0 2.125)"><path class="d" d="M4,18H5.417v2.125H4Z" transform="translate(-4 -18)"/></g><g transform="translate(12.042 6.375)"><path class="e" d="M41.542,37.083a3.542,3.542,0,1,1,3.542-3.542A3.542,3.542,0,0,1,41.542,37.083Z" transform="translate(-38 -30)"/></g><g transform="translate(14.875 13.458)"><path class="f" d="M46.708,53.542A.708.708,0,0,1,46,52.833V50h1.417v2.833A.708.708,0,0,1,46.708,53.542Z" transform="translate(-46 -50)"/></g><g transform="translate(14.875 13.458)"><path class="g" d="M46.708,52.833V50H46v2.833a.7.7,0,0,0,1.063.61A.706.706,0,0,1,46.708,52.833Z" transform="translate(-46 -50)"/></g><g transform="translate(2.833 8.5)"><path class="e" d="M19.792,37.417A4.929,4.929,0,0,1,20,36H12v2.833h8A4.928,4.928,0,0,1,19.792,37.417Z" transform="translate(-12 -36)"/></g><g transform="translate(11.333 5.667)"><path class="f" d="M40.25,28a4.25,4.25,0,1,0,4.25,4.25A4.25,4.25,0,0,0,40.25,28Zm0,7.792a3.542,3.542,0,1,1,3.542-3.542A3.546,3.546,0,0,1,40.25,35.792Z" transform="translate(-36 -28)"/></g><g transform="translate(11.333 5.667)"><path class="g" d="M36.708,32.25a4.251,4.251,0,0,1,3.9-4.235C40.487,28,40.37,28,40.25,28a4.25,4.25,0,0,0,0,8.5c.12,0,.237,0,.354-.015A4.251,4.251,0,0,1,36.708,32.25Z" transform="translate(-36 -28)"/></g><g transform="translate(14.875 14.875)"><path class="c" d="M46,54h1.417v.708H46Z" transform="translate(-46 -54)"/></g><g transform="translate(14.875 14.875)"><path class="d" d="M46,54h.708v.708H46Z" transform="translate(-46 -54)"/></g><g transform="translate(12.622 9.083)"><path class="h" d="M0,0H2V.354H0Z" transform="translate(0 1.416) rotate(-45)"/></g><g transform="translate(12.622 9.083)"><path class="h" d="M0,0H.354V2H0Z" transform="translate(0 0.25) rotate(-45)"/></g><g transform="translate(14.747 9.083)"><path class="h" d="M0,0H2V.354H0Z" transform="translate(0 1.416) rotate(-45)"/></g><g transform="translate(14.747 9.084)"><path class="h" d="M0,0H.354V2H0Z" transform="translate(0 0.25) rotate(-45)"/></g><g transform="translate(16.871 9.084)"><path class="h" d="M0,0H2V.354H0Z" transform="translate(0 1.416) rotate(-45)"/></g><g transform="translate(16.871 9.084)"><path class="h" d="M0,0H.354V2H0Z" transform="translate(0 0.25) rotate(-45)"/></g><g transform="translate(2.833 6.375)"><path class="i" d="M12,30h2.125v.708H12Z" transform="translate(-12 -30)"/></g><g transform="translate(5.667 6.375)"><path class="i" d="M20,30h2.125v.708H20Z" transform="translate(-20 -30)"/></g><g transform="translate(8.5 6.375)"><path class="i" d="M28,30h2.125v.708H28Z" transform="translate(-28 -30)"/></g></g></g></svg>