<svg xmlns="http://www.w3.org/2000/svg" width="19.605" height="19.605" viewBox="0 0 19.605 19.605"><defs><style>.a{fill:#fff;}</style></defs><path class="a" d="M14.195,0H5.41A5.416,5.416,0,0,0,0,5.41v8.784a5.416,5.416,0,0,0,5.41,5.41h8.785a5.416,5.416,0,0,0,5.41-5.41V5.41A5.416,5.416,0,0,0,14.195,0Zm3.671,14.195a3.675,3.675,0,0,1-3.671,3.671H5.41a3.675,3.675,0,0,1-3.671-3.671V5.41A3.675,3.675,0,0,1,5.41,1.739h8.785A3.675,3.675,0,0,1,17.866,5.41v8.784Z" transform="translate(0)"/><path class="a" d="M46.02,40.97a5.052,5.052,0,1,0,5.052,5.052A5.057,5.057,0,0,0,46.02,40.97Zm0,8.364a3.312,3.312,0,1,1,3.312-3.312A3.316,3.316,0,0,1,46.02,49.334Z" transform="translate(-36.217 -36.219)"/><path class="a" d="M120.2,28.251a1.275,1.275,0,1,0,.9.373A1.281,1.281,0,0,0,120.2,28.251Z" transform="translate(-105.13 -24.975)"/></svg>