<svg xmlns="http://www.w3.org/2000/svg" width="61.333" height="37.435" viewBox="0 0 61.333 37.435"><defs><style>.a{fill:rgba(86,200,232,0.22);}</style></defs><g transform="translate(-131 -112)"><circle class="a" cx="18.718" cy="18.718" r="18.718" transform="translate(154.898 112)"/><g transform="translate(131 118.015)"><g transform="translate(0 0)"><path d="M38.358,105.122l-1.068-4.272a.646.646,0,0,0,.511-.631V99.53a2.715,2.715,0,0,0-2.712-2.712H30.223V95.4a1.336,1.336,0,0,0-1.335-1.335H4.09A1.336,1.336,0,0,0,2.755,95.4v11.711a.646.646,0,0,0,1.292,0V95.4a.043.043,0,0,1,.043-.043h24.8a.043.043,0,0,1,.043.043v11.711a.646.646,0,0,0,1.292,0v-.732h7.622a2.113,2.113,0,0,1,2.007,1.464H37.844a.646.646,0,0,0-.646.646v1.378a2.026,2.026,0,0,0,2.023,2.023h.732v2.841H38.265a4.089,4.089,0,0,0-7.731,0h-.311v-4.865a.646.646,0,0,0-1.292,0v4.865h-13.4a4.089,4.089,0,0,0-7.731,0H4.09a.043.043,0,0,1-.043-.043v-1.421h2.8a.646.646,0,0,0,0-1.292H.646a.646.646,0,0,0,0,1.292h2.11v1.421a1.336,1.336,0,0,0,1.335,1.335H7.579c0,.014,0,.029,0,.043a4.09,4.09,0,0,0,8.18,0c0-.015,0-.029,0-.043H30.31c0,.014,0,.029,0,.043a4.09,4.09,0,1,0,8.18,0c0-.015,0-.029,0-.043H40.6a.646.646,0,0,0,.646-.646v-6.888A3.406,3.406,0,0,0,38.358,105.122Zm-8.134-7.013h4.865a1.422,1.422,0,0,1,1.421,1.421v.043H30.223Zm0,6.975v-4.219h5.738l1.055,4.219ZM11.667,118.861a2.8,2.8,0,1,1,2.8-2.8A2.8,2.8,0,0,1,11.667,118.861Zm22.732,0a2.8,2.8,0,1,1,2.8-2.8A2.8,2.8,0,0,1,34.4,118.861Zm5.554-8.266h-.732a.733.733,0,0,1-.732-.732v-.732h1.464v1.464Z" transform="translate(0 -94.062)"/></g><g transform="translate(10.333 20.666)"><path d="M129.6,350.6a1.335,1.335,0,1,0,1.335,1.335A1.336,1.336,0,0,0,129.6,350.6Z" transform="translate(-128.267 -350.597)"/></g><g transform="translate(33.065 20.666)"><path d="M411.79,350.6a1.335,1.335,0,1,0,1.335,1.335A1.336,1.336,0,0,0,411.79,350.6Z" transform="translate(-410.455 -350.597)"/></g><g transform="translate(16.532 17.91)"><path d="M215.517,316.393h-9.644a.646.646,0,1,0,0,1.292h9.644a.646.646,0,1,0,0-1.292Z" transform="translate(-205.227 -316.393)"/></g><g transform="translate(1.378 15.155)"><path d="M26.014,282.188H17.748a.646.646,0,0,0,0,1.292h8.266a.646.646,0,0,0,0-1.292Z" transform="translate(-17.102 -282.188)"/></g><g transform="translate(11.71 6.2)"><path d="M156.116,171.212a.646.646,0,0,0-.913,0l-5.743,5.743-2.988-2.988a.646.646,0,0,0-.913.913L149,178.325a.646.646,0,0,0,.913,0l6.2-6.2A.646.646,0,0,0,156.116,171.212Z" transform="translate(-145.37 -171.023)"/></g></g></g></svg>