<svg xmlns="http://www.w3.org/2000/svg" width="54.999" height="55" viewBox="0 0 54.999 55"><defs><style>.a{fill:#12284c;}.b{fill:#fff;}.c{fill:#54c8e8;}.d{fill:#ca8342;}</style></defs><g transform="translate(-97.28 -60.437)"><path class="a" d="M155.375,109.9h1.765V101.1l-1.765.292Z" transform="translate(-14.828 -11.051)"/><g transform="translate(97.28 60.437)"><path class="b" d="M113.24,104.23A26.332,26.332,0,1,1,139.571,77.9,26.361,26.361,0,0,1,113.24,104.23m0-51.29A24.958,24.958,0,1,0,138.2,77.9,24.987,24.987,0,0,0,113.24,52.94" transform="translate(-84.572 -51.566)"/><path class="c" d="M109.332,104.23A26.332,26.332,0,1,1,135.664,77.9a26.361,26.361,0,0,1-26.332,26.332m0-51.29A24.958,24.958,0,1,0,134.291,77.9,24.986,24.986,0,0,0,109.332,52.94" transform="translate(-83.001 -51.566)"/><path class="d" d="M109.332,108.137A26.332,26.332,0,1,1,135.664,81.8a26.361,26.361,0,0,1-26.332,26.332m0-51.291A24.958,24.958,0,1,0,134.291,81.8a24.986,24.986,0,0,0-24.959-24.958" transform="translate(-83.001 -53.137)"/><path class="a" d="M102.477,90.221a2.627,2.627,0,0,0,2.18-.948l.035.808h1.747V83.1l-1.747.291-.035.808a2.649,2.649,0,0,0-2.18-.948,3.493,3.493,0,0,0,0,6.965m.349-5.37a1.8,1.8,0,0,1,1.825,1.874,1.82,1.82,0,0,1-1.825,1.908,1.794,1.794,0,0,1-1.8-1.908,1.769,1.769,0,0,1,1.8-1.874" transform="translate(-89.537 -64.25)"/><path class="a" d="M115.884,83.618a1.39,1.39,0,0,1,1.477-1.428,1.308,1.308,0,0,1,1.365,1.428v3.739h1.79v-4.2a2.486,2.486,0,0,0-2.626-2.626,2.583,2.583,0,0,0-2.006.85V76.33l-1.79.291V87.357h1.79Z" transform="translate(-95.506 -61.525)"/><path class="a" d="M129.331,76.33l-1.783.292V87.357h1.783Z" transform="translate(-100.917 -61.525)"/><path class="a" d="M135.967,90.221a2.627,2.627,0,0,0,2.18-.948l.035.808h1.748V83.1l-1.748.291-.035.808a2.649,2.649,0,0,0-2.18-.948,3.493,3.493,0,0,0,0,6.965m.349-5.37a1.8,1.8,0,0,1,1.825,1.874,1.82,1.82,0,0,1-1.825,1.908,1.794,1.794,0,0,1-1.8-1.908,1.769,1.769,0,0,1,1.8-1.874" transform="translate(-103.006 -64.25)"/><path class="a" d="M152.229,86.342v3.739h1.79v-4.2a2.49,2.49,0,0,0-2.639-2.626,2.549,2.549,0,0,0-2.062.913l-.035-1.065-1.7.291v6.686h1.783V86.342a1.392,1.392,0,0,1,1.483-1.428,1.315,1.315,0,0,1,1.379,1.428" transform="translate(-108.974 -64.25)"/><path class="a" d="M99.789,101.549l2.468-.483v-.751l-2.468.483Z" transform="translate(-89.753 -71.172)"/><path class="a" d="M102.257,98.429l-2.468.483v.751l2.468-.483Z" transform="translate(-89.753 -70.413)"/><path class="a" d="M128.506,101.021a5.02,5.02,0,0,0-2.583-.63,10.311,10.311,0,0,0-1.786.166q-.943.166-1.994.429l.152,1.482q1.191-.194,1.918-.3a9.251,9.251,0,0,1,1.295-.1,3.9,3.9,0,0,1,2.306.72,2.98,2.98,0,0,1,1.018,2.6v1.316h-1.3v-.277a2.827,2.827,0,0,0-.367-1.385,2.908,2.908,0,0,0-1.018-1.074,2.7,2.7,0,0,0-1.468-.408,2.774,2.774,0,0,0-1.481.408,2.912,2.912,0,0,0-1.4,2.472v.263h-6.091c-.7,0-1.1-.34-1.1-1.04v-8.3l-1.8.275v7.994a.93.93,0,0,1-1.058,1.07h-5.254V99.747l-1.754.292v6.668H99.366V108.4h12.406v0a2.758,2.758,0,0,0,1.877-.7,2.748,2.748,0,0,0,1.872.7h15.165V105.39a5.852,5.852,0,0,0-.554-2.61,4.077,4.077,0,0,0-1.627-1.759m-2.832,5.685h-2.008v-.291a1.241,1.241,0,0,1,.284-.824.891.891,0,0,1,.713-.339.917.917,0,0,1,.72.332,1.2,1.2,0,0,1,.291.817Z" transform="translate(-89.583 -69.986)"/><path class="a" d="M156.948,97.5l-1.162.309a.56.56,0,0,1-.256-.479.537.537,0,0,1,.554-.543.69.69,0,0,1,.266.048.673.673,0,0,1,.182.1l.139-.64a1.584,1.584,0,0,0-.832-.256,1.078,1.078,0,0,0-.8.32,1.044,1.044,0,0,0-.314.756,1.087,1.087,0,0,0,.416.863l-.491.128.118.5,2.334-.459Z" transform="translate(-111.815 -69.454)"/></g></g></svg>