<svg xmlns="http://www.w3.org/2000/svg" width="24.264" height="29.8" viewBox="0 0 24.264 29.8"><defs><style>.a{fill:#12284c;}</style></defs><g transform="translate(0)"><path class="a" d="M21.547,11.975A6.739,6.739,0,0,1,24.765,6.3a6.955,6.955,0,0,0-5.45-2.949C17,3.114,14.789,4.716,13.61,4.716s-2.993-1.332-4.916-1.3A7.3,7.3,0,0,0,2.53,7.154C-.1,11.714,1.856,18.468,4.417,22.171c1.252,1.809,2.746,3.841,4.7,3.77,1.887-.076,2.6-1.222,4.882-1.222s2.923,1.222,4.919,1.185c2.032-.039,3.316-1.846,4.558-3.66a16.583,16.583,0,0,0,2.066-4.238A6.594,6.594,0,0,1,21.547,11.975Z" transform="translate(-1.282 3.857)"/><path class="a" d="M11.322,4.759A6.566,6.566,0,0,0,12.873,0a6.671,6.671,0,0,0-4.39,2.256A6.246,6.246,0,0,0,6.9,6.866,5.525,5.525,0,0,0,11.322,4.759Z" transform="translate(5.19)"/></g></svg>