<svg xmlns="http://www.w3.org/2000/svg" width="24.44" height="17.457" viewBox="0 0 24.44 17.457"><defs><style>.a{fill:#fff;}</style></defs><g transform="translate(0 0)"><g transform="translate(0 0)"><path class="a" d="M23.567,68.267H.873A.873.873,0,0,0,0,69.14V84.851a.873.873,0,0,0,.873.873H23.567a.873.873,0,0,0,.873-.873V69.14A.873.873,0,0,0,23.567,68.267Zm-1.431,1.746L12.22,77.64,2.3,70.013Zm.559,13.966H1.746V71.785l9.943,7.648a.873.873,0,0,0,1.063,0l9.943-7.648Z" transform="translate(0 -68.267)"/></g></g></svg>