<svg xmlns="http://www.w3.org/2000/svg" width="75.025" height="50" viewBox="0 0 75.025 50"><defs><style>.a{fill:rgba(86,200,232,0.22);}.b{stroke:#000;}</style></defs><g transform="translate(-509.975 -2248)"><ellipse class="a" cx="25.5" cy="25" rx="25.5" ry="25" transform="translate(534 2248)"/><g transform="translate(510.475 2255.201)"><g transform="translate(0)"><path class="b" d="M39.291,2.663H31.3v-2a.666.666,0,1,0-1.332,0v2H20.649v-2a.666.666,0,0,0-1.332,0v2H10v-2a.666.666,0,1,0-1.332,0v2H.675a.666.666,0,0,0-.666.666V33.955a.666.666,0,0,0,.666.666h9.352a11.968,11.968,0,0,0,19.912,0h9.352a.666.666,0,0,0,.666-.666V3.329A.666.666,0,0,0,39.291,2.663ZM30.609,28.712c-.022.316-.063.629-.113.94a10.631,10.631,0,1,1,.138-1.689Q30.635,28.34,30.609,28.712Zm8.015,4.577h-7.9c.049-.1.093-.2.139-.3.035-.075.071-.148.1-.224q.133-.3.248-.612c.013-.035.028-.067.041-.1q.133-.364.239-.736c.019-.067.035-.133.053-.2.049-.182.1-.364.133-.548.02-.088.037-.177.055-.266q.05-.252.089-.505c.014-.091.027-.183.039-.275.023-.178.041-.356.057-.533.007-.081.015-.161.021-.242.017-.259.027-.518.027-.779A11.984,11.984,0,0,0,8,27.965c0,.261.011.52.027.779.005.081.014.162.021.243.015.178.033.356.056.533.012.093.026.184.041.277q.039.253.089.5c.017.089.035.178.055.266.04.182.086.362.133.542.019.067.035.139.055.208.072.246.15.49.238.732.015.04.032.079.047.118q.112.3.241.6c.035.079.071.155.107.232.046.1.089.2.137.3h-7.9V10.653H38.625Zm0-23.968H1.341V3.995H8.664v2H7.333a.666.666,0,0,0,0,1.332h3.995a.666.666,0,0,0,0-1.332H10v-2h9.321v2H17.985a.666.666,0,0,0,0,1.332H21.98a.666.666,0,1,0,0-1.332H20.649v-2H29.97v2H28.638a.666.666,0,1,0,0,1.332h3.995a.666.666,0,0,0,0-1.332H31.3v-2h7.324Z" transform="translate(-0.009)"/></g><g transform="translate(19.308 19.308)"><path class="b" d="M237.062,244.3l-3.721-3.907v-7.723a.666.666,0,1,0-1.332,0v7.989a.666.666,0,0,0,.184.459l3.9,4.1a.666.666,0,0,0,.965-.918Z" transform="translate(-232.009 -232)"/></g></g></g></svg>