<svg xmlns="http://www.w3.org/2000/svg" width="19.688" height="28" viewBox="0 0 19.688 28"><defs><style>.a{fill:#a7a7a7;}</style></defs><g transform="translate(-76)"><g transform="translate(76)"><path class="a" d="M85.844,0a9.846,9.846,0,0,0-8.374,15.02l7.814,12.592a.82.82,0,0,0,.7.388h.007a.82.82,0,0,0,.7-.4L94.3,14.887A9.846,9.846,0,0,0,85.844,0Zm7.047,14.045L85.968,25.6l-7.1-11.448a8.209,8.209,0,1,1,14.027-.111Z" transform="translate(-76)"/></g><g transform="translate(80.922 4.922)"><path class="a" d="M170.922,90a4.922,4.922,0,1,0,4.922,4.922A4.927,4.927,0,0,0,170.922,90Zm0,8.214a3.292,3.292,0,1,1,3.287-3.292A3.295,3.295,0,0,1,170.922,98.214Z" transform="translate(-166 -90)"/></g></g></svg>