<svg xmlns="http://www.w3.org/2000/svg" width="68.977" height="50" viewBox="0 0 68.977 50"><defs><style>.a{fill:rgba(86,200,232,0.22);}</style></defs><g transform="translate(-129 -2251)"><ellipse class="a" cx="25.5" cy="25" rx="25.5" ry="25" transform="translate(146.977 2251)"/><g transform="translate(129 2254.083)"><path d="M43.68,19.811h0a2.508,2.508,0,0,0-.967-1.724L40.226,16.15l.935-3.084A2.5,2.5,0,0,0,39.339,9.91l-3.129-.73-.4-3.188a2.5,2.5,0,0,0-2.949-2.142l-3.155.605L28.045,1.7a2.524,2.524,0,0,0-3.23-.962,1.486,1.486,0,0,0-.233.134L21.844,2.783,19.208.947a2.5,2.5,0,0,0-3.565.758l-1.661,2.75-3.156-.605A2.5,2.5,0,0,0,7.878,5.992l-.4,3.188L4.17,9.952,4.015,10l-.057.025a2.5,2.5,0,0,0-1.429,3.039l.934,3.084L.869,18.168l-.15.131-.042.046A2.528,2.528,0,0,0,.6,21.7l2.03,2.428L.98,27.11l-.066.149L.9,27.315a2.528,2.528,0,0,0,1.3,3.1L5.1,31.779l-.272,3.2A2.5,2.5,0,0,0,7.27,37.689l3.212.064,1.053,3.035a2.5,2.5,0,0,0,3.33,1.483l2.961-1.248,2.324,2.48.122.108.047.035a2.565,2.565,0,0,0,1.527.505,2.488,2.488,0,0,0,1.822-.784l2.2-2.344,2.961,1.248a2.5,2.5,0,0,0,3.329-1.483l1.054-3.035,3.4-.068.161-.018.058-.012a2.528,2.528,0,0,0,2.033-2.676l-.272-3.2,2.909-1.365a2.5,2.5,0,0,0,1.126-3.466l-1.557-2.825L43.094,21.7A2.506,2.506,0,0,0,43.68,19.811Zm-5.039,3.215a1.515,1.515,0,0,0-.17,1.7l1.871,3.4-3.51,1.647a1.516,1.516,0,0,0-.862,1.494l.328,3.863-3.876.077a1.515,1.515,0,0,0-1.4,1.014l-1.271,3.663-3.572-1.506a1.516,1.516,0,0,0-1.688.359l-2.651,2.829-2.651-2.829a1.513,1.513,0,0,0-1.1-.476,1.5,1.5,0,0,0-.583.118l-3.573,1.506-1.271-3.662a1.515,1.515,0,0,0-1.4-1.015l-3.877-.077.328-3.863a1.515,1.515,0,0,0-.862-1.494l-3.51-1.647,1.871-3.4a1.515,1.515,0,0,0-.17-1.7L2.584,20.08,5.6,17.732A1.514,1.514,0,0,0,6.124,16.1L5,12.389l3.776-.882A1.515,1.515,0,0,0,9.93,10.226l.482-3.847,3.808.73a1.516,1.516,0,0,0,1.575-.7l2-3.318L20.982,5.3a1.514,1.514,0,0,0,1.725,0l3.181-2.216,2.005,3.318a1.515,1.515,0,0,0,1.576.7l3.808-.73.482,3.847a1.515,1.515,0,0,0,1.154,1.282l3.776.882L37.565,16.1a1.515,1.515,0,0,0,.523,1.633L41.1,20.081Zm0,0" transform="translate(0 -0.5)"/><path d="M140.947,128.781a10.881,10.881,0,1,0,10.881,10.881A10.893,10.893,0,0,0,140.947,128.781Zm0,19.2a8.318,8.318,0,1,1,8.319-8.318A8.328,8.328,0,0,1,140.947,147.98Zm0,0" transform="translate(-118.966 -117.833)"/><path d="M201.906,212.669l-5.054,5.054-1.371-1.372a1.281,1.281,0,0,0-1.812,1.812l2.277,2.277a1.281,1.281,0,0,0,1.812,0l5.96-5.959a1.281,1.281,0,0,0-1.812-1.812Zm0,0" transform="translate(-176.798 -194.219)"/></g></g></svg>