<svg xmlns="http://www.w3.org/2000/svg" width="49.374" height="51.204" viewBox="0 0 49.374 51.204"><defs><style>.a{fill:#12284c;}</style></defs><g transform="translate(-8.236)"><g transform="translate(8.236)"><path class="a" d="M33.022,1.9a24.653,24.653,0,0,0-17.2,6.928V1.9a1.9,1.9,0,1,0-3.793,0V13.275a1.9,1.9,0,0,0,1.3,1.8L24.7,18.868a1.9,1.9,0,0,0,1.2-3.6l-8.4-2.8a20.775,20.775,0,1,1-5.185,10.6,1.9,1.9,0,0,0-3.734-.665l-.006.034a24.938,24.938,0,0,0-.341,4.11A24.687,24.687,0,1,0,33.022,1.9Z" transform="translate(-8.236 0)"/></g></g></svg>