<svg xmlns="http://www.w3.org/2000/svg" viewBox="0 0 75.5 77.7"><defs><style>.cls-1{fill:#9c006d}.cls-3{fill:#440063}.cls-4{fill:#ff5863}.cls-6{fill:#fff}.cls-7{fill:#e1e0e1}</style></defs><g id="Layer_2" data-name="Layer 2"><g id="Layer_1-2" data-name="Layer 1"><g id="Layer0_10_MEMBER_0_FILL" data-name="Layer0 10 MEMBER 0 FILL"><path class="cls-7" d="M13.9 69.2a36 36 0 0 0 23.85 8.5 38 38 0 0 0 11.8-1.8 35.71 35.71 0 0 0 12.05-6.7z"/><path d="M37.75 2.15a37 37 0 0 0-16 3.45 37.62 37.62 0 0 0-10.7 7.6A36.47 36.47 0 0 0 0 39.9a36.28 36.28 0 0 0 10.65 26.3 2.51 2.51 0 0 0 .4.4c.93.93 1.88 1.8 2.85 2.6h47.7c1-.8 1.92-1.67 2.85-2.6a36.28 36.28 0 0 0 11-26.7 36.47 36.47 0 0 0-11-26.7c-1-.94-2-1.84-3-2.7a36.23 36.23 0 0 0-23.7-8.35z" fill="#eaeaea"/></g><path class="cls-3" d="M63.35 50.7a7.28 7.28 0 0 0-6.5 1.1 10.74 10.74 0 0 0-4.3 5.6 9.79 9.79 0 0 0 0 6.95 6.93 6.93 0 0 0 4.6 4.55 7.43 7.43 0 0 0 6.5-1.15 10.71 10.71 0 0 0 4.35-5.6 10.19 10.19 0 0 0 0-6.95 6.88 6.88 0 0 0-4.65-4.5m-1 3.3a3.74 3.74 0 0 1 2.4 2.45 6.67 6.67 0 0 1-.1 4.55 7.5 7.5 0 0 1-3 3.85 4.33 4.33 0 0 1-3.65.7h.05a3.76 3.76 0 0 1-2.35-2.35 6.47 6.47 0 0 1 .1-4.6 7.47 7.47 0 0 1 2.9-3.9 4.24 4.24 0 0 1 3.65-.7z" id="Layer0_10_MEMBER_1_MEMBER_0_MEMBER_0_FILL" data-name="Layer0 10 MEMBER 1 MEMBER 0 MEMBER 0 FILL"/><path class="cls-1" d="M57.35 32.6l-3 .45 4.25 28.5 2.9-.45z" id="Layer0_10_MEMBER_1_MEMBER_1_FILL" data-name="Layer0 10 MEMBER 1 MEMBER 1 FILL"/><g id="Layer0_10_MEMBER_1_MEMBER_2_FILL" data-name="Layer0 10 MEMBER 1 MEMBER 2 FILL"><path class="cls-4" d="M49.25 52.9l13.6-7.55-5 .45-19.55 1.85L48.75 60.5l.5-7.6m6-17.55l-3.7-2-8.95-2.7L33 37.7l15.1 3 7.15-5.35M32 52.85l-2.6-4.25-.5 1.2-12.1-8.5 12.9 23.1 14-2.9L32 52.1v.75m-5-11.4l6-3.75-21.6-7.25-1.55 2.25 20.3 13.7L35 50z"/><path d="M63.4 38.85l-1-2.35-6.7 3.7 8.9 1.3z" fill="#91a7a7"/><path class="cls-1" d="M62.35 36.5l1 2.35 3.4-2L61.4 25.5l1 11M33 37.7l-6 3.75L35 50l-4.8-3.6-.75 2.2L32 52.85v-.75l11.7 9.4 5-1-10.4-12.85 19.55-1.85 10.85-3.75-4.1-.55-8.9-1.3-.45-4.85-7.15 5.35z"/><path class="cls-6" d="M68.7 42.05l-1.9-5.2-3.4 2 1.2 2.65z"/></g><path class="cls-6" d="M39.05 60.3a7.7 7.7 0 0 0-5.65 2.35 8.52 8.52 0 0 0-1.55 2.1 7.72 7.72 0 0 0-5.15-1.85 7.93 7.93 0 0 0-2.95.55A11.26 11.26 0 0 0 21 59.1a11.17 11.17 0 0 0-8.2-3.4 11.47 11.47 0 0 0-6.7 2.2A35.44 35.44 0 0 0 15.25 69h37.9a6 6 0 0 0 .05-.75 4.21 4.21 0 0 0-1.3-3.1 4.12 4.12 0 0 0-3.1-1.3 3.91 3.91 0 0 0-2.55.85 7.81 7.81 0 0 0-1.6-2.1 7.52 7.52 0 0 0-5.6-2.3z" id="Layer0_10_MEMBER_1_MEMBER_3_FILL" data-name="Layer0 10 MEMBER 1 MEMBER 3 FILL"/><path class="cls-3" d="M21.25 51.85a7 7 0 0 0-6.4-1.2 7.9 7.9 0 0 0-5 4.4 9.79 9.79 0 0 0-.8 6.9 9.06 9.06 0 0 0 3.7 5.75 7.06 7.06 0 0 0 6.4 1.2 8.11 8.11 0 0 0 5.05-4.4 9.78 9.78 0 0 0 .8-6.9 9.22 9.22 0 0 0-3.7-5.75M15.8 54a3.81 3.81 0 0 1 3.45.7 6 6 0 0 1 2.35 3.65 6.67 6.67 0 0 1-.55 4.6 4.86 4.86 0 0 1-2.8 2.55 3.84 3.84 0 0 1-3.45-.7 6.06 6.06 0 0 1-2.35-3.65 6.59 6.59 0 0 1 .5-4.65A4.86 4.86 0 0 1 15.8 54z" id="Layer0_10_MEMBER_1_MEMBER_4_FILL" data-name="Layer0 10 MEMBER 1 MEMBER 4 FILL"/><path class="cls-3" d="M59.65 31.25a2.79 2.79 0 0 0-2-.85H56.1a3 3 0 0 0-2.9 2.9v1.5a2.68 2.68 0 0 0 .9 2 2.56 2.56 0 0 0 2 .9h1.5a3 3 0 0 0 2.9-2.9v-1.5a2.66 2.66 0 0 0-.85-2.05z" id="Layer0_10_MEMBER_1_MEMBER_5_FILL" data-name="Layer0 10 MEMBER 1 MEMBER 5 FILL"/><g id="Layer0_10_MEMBER_1_MEMBER_6_MEMBER_0_FILL" data-name="Layer0 10 MEMBER 1 MEMBER 6 MEMBER 0 FILL"><path class="cls-4" d="M44.8 29.3l5.8-5.3-9.2-9.1-5.5 5.65z"/><path class="cls-1" d="M50.6 24l-5.8 5.3 6.85 6.7 5.5-5.55z"/></g><path class="cls-1" d="M29.1 56.1l-2.4-4.65-10.7 7.8.8 2.6z" id="Layer0_10_MEMBER_1_MEMBER_7_FILL" data-name="Layer0 10 MEMBER 1 MEMBER 7 FILL"/><path class="cls-3" d="M28.9 29.7a4.65 4.65 0 0 0-3.4 1.9 4.56 4.56 0 0 0-1.1 3.65 4.82 4.82 0 0 0 1.8 3.45l5.9 4.75-10.55 6.85 6.3 10.75 1.75-6 13.7-8a5.64 5.64 0 0 0 1.45-2.45 4.85 4.85 0 0 0 0-2.85 5.42 5.42 0 0 0-1.6-2.4l-6.3-5.15a.21.21 0 0 1-.15 0v-.05l-4-3.25a4.86 4.86 0 0 0-3.8-1.2z" id="Layer0_10_MEMBER_1_MEMBER_8_FILL" data-name="Layer0 10 MEMBER 1 MEMBER 8 FILL"/><path class="cls-3" d="M38.75 10.4l-1.35 1.85 7.15 6.15.2-6.7z" id="Layer0_10_MEMBER_1_MEMBER_9_MEMBER_0_FILL" data-name="Layer0 10 MEMBER 1 MEMBER 9 MEMBER 0 FILL"/><g id="Layer0_10_MEMBER_1_MEMBER_9_MEMBER_1_FILL" data-name="Layer0 10 MEMBER 1 MEMBER 9 MEMBER 1 FILL"><path class="cls-4" d="M30.3 19.75L24.85 32.6l17.55-6.2 1.75-3.85.65-4.25-7.1-6.1q-4.46-.6-7.4 7.55z"/><path class="cls-1" d="M24.45 33.4l13.7 2.6 4.25-9.6-17.55 6.2z"/></g><g id="Layer0_10_MEMBER_1_MEMBER_9_MEMBER_2_FILL" data-name="Layer0 10 MEMBER 1 MEMBER 9 MEMBER 2 FILL"><path class="cls-3" d="M52.55 16.4l1.4-6-8-5.2-.55 6.3z"/><path class="cls-4" d="M37.15 6.6a8.35 8.35 0 0 0 0 3.75L50 19.15l2.55-2.6v-.15l-7.15-4.95.6-6.3 8 5.2a8.62 8.62 0 0 0-1.05-6.2 8.65 8.65 0 0 0-11.85-2.9 8.7 8.7 0 0 0-3.95 5.35z"/></g><path class="cls-1" d="M25.4 31.6l10.45-20.8L14.7.15 4.35 22z" id="Layer0_10_MEMBER_1_MEMBER_10_FILL" data-name="Layer0 10 MEMBER 1 MEMBER 10 FILL"/></g></g></svg>