<svg xmlns="http://www.w3.org/2000/svg" width="108" height="18" viewBox="0 0 108 18"><defs><style>.a{fill:#12284c;}</style></defs><g transform="translate(-131 -200)"><g transform="translate(131 200)"><path class="a" d="M18.842,18.631a.553.553,0,0,0-.446-.376l-5.85-.85L9.931,12.1a.553.553,0,0,0-.991,0L6.323,17.4l-5.85.85a.553.553,0,0,0-.306.943L4.4,23.324l-1,5.826a.553.553,0,0,0,.8.583l5.232-2.751,5.232,2.751a.553.553,0,0,0,.8-.583l-1-5.826L18.7,19.2A.553.553,0,0,0,18.842,18.631Z" transform="translate(0 -11.796)"/></g><g transform="translate(153.283 200)"><path class="a" d="M18.842,18.631a.553.553,0,0,0-.446-.376l-5.85-.85L9.931,12.1a.553.553,0,0,0-.991,0L6.323,17.4l-5.85.85a.553.553,0,0,0-.306.943L4.4,23.324l-1,5.826a.553.553,0,0,0,.8.583l5.232-2.751,5.232,2.751a.553.553,0,0,0,.8-.583l-1-5.826L18.7,19.2A.553.553,0,0,0,18.842,18.631Z" transform="translate(0 -11.796)"/></g><g transform="translate(197.848 200)"><path class="a" d="M18.842,18.631a.553.553,0,0,0-.446-.376l-5.85-.85L9.931,12.1a.553.553,0,0,0-.991,0L6.323,17.4l-5.85.85a.553.553,0,0,0-.306.943L4.4,23.324l-1,5.826a.553.553,0,0,0,.8.583l5.232-2.751,5.232,2.751a.553.553,0,0,0,.8-.583l-1-5.826L18.7,19.2A.553.553,0,0,0,18.842,18.631Z" transform="translate(0 -11.796)"/></g><g transform="translate(220.131 200)"><path class="a" d="M18.842,18.631a.553.553,0,0,0-.446-.376l-5.85-.85L9.931,12.1a.553.553,0,0,0-.991,0L6.323,17.4l-5.85.85a.553.553,0,0,0-.306.943L4.4,23.324l-1,5.826a.553.553,0,0,0,.8.583l5.232-2.751,5.232,2.751a.553.553,0,0,0,.8-.583l-1-5.826L18.7,19.2A.553.553,0,0,0,18.842,18.631Z" transform="translate(0 -11.796)"/></g><g transform="translate(175.564 200)"><path class="a" d="M18.842,18.631a.553.553,0,0,0-.446-.376l-5.85-.85L9.931,12.1a.553.553,0,0,0-.991,0L6.323,17.4l-5.85.85a.553.553,0,0,0-.306.943L4.4,23.324l-1,5.826a.553.553,0,0,0,.8.583l5.232-2.751,5.232,2.751a.553.553,0,0,0,.8-.583l-1-5.826L18.7,19.2A.553.553,0,0,0,18.842,18.631Z" transform="translate(0 -11.796)"/></g></g></svg>