<svg xmlns="http://www.w3.org/2000/svg" width="19" height="19" viewBox="0 0 19 19"><defs><style>.a{fill:#12284c;}</style></defs><g transform="translate(0)"><g transform="translate(0)"><g transform="translate(0)"><path class="a" d="M18.321,0H10.857a.679.679,0,0,0-.48.2L.2,10.378a.679.679,0,0,0,0,.959L7.663,18.8a.679.679,0,0,0,.959,0L18.8,8.623a.679.679,0,0,0,.2-.48V.679A.679.679,0,0,0,18.321,0Zm-.679,7.862-9.5,9.5-6.5-6.5,9.5-9.5h6.5Z" transform="translate(0 0)"/></g></g><g transform="translate(12.214 2.714)"><path class="a" d="M309.232,68.267a2.036,2.036,0,1,0,2.036,2.036A2.036,2.036,0,0,0,309.232,68.267Zm0,2.714a.679.679,0,1,1,.679-.679A.679.679,0,0,1,309.232,70.981Z" transform="translate(-307.196 -68.267)"/></g></g></svg>