<svg xmlns="http://www.w3.org/2000/svg" width="15.741" height="15.741" viewBox="0 0 15.741 15.741"><defs><style>.a{fill:#12284c;}</style></defs><g transform="translate(0)"><g transform="translate(0)"><path class="a" d="M15.178,0H8.994a.562.562,0,0,0-.4.165L.164,8.6a.562.562,0,0,0,0,.795l6.184,6.184a.562.562,0,0,0,.795,0l8.433-8.433a.562.562,0,0,0,.165-.4V.562A.562.562,0,0,0,15.178,0Zm-.562,6.513-7.87,7.871L1.357,8.995l7.87-7.87h5.389Z" transform="translate(0 0)"/></g></g><g transform="translate(10.119 2.249)"><path class="a" d="M308.882,68.267a1.687,1.687,0,1,0,1.687,1.687A1.687,1.687,0,0,0,308.882,68.267Zm0,2.249a.562.562,0,1,1,.562-.562A.562.562,0,0,1,308.882,70.516Z" transform="translate(-307.196 -68.267)"/></g></svg>