<svg xmlns="http://www.w3.org/2000/svg" width="20" height="16.589" viewBox="0 0 20 16.589">
  <g id="Group_6530" data-name="Group 6530" transform="translate(-329.5 -105.5)">
    <path id="Path_3260" data-name="Path 3260" d="M2.676,0H1.338V14.141H0v3.516H1.338V20H2.676V17.656H4.014V14.141H2.676Zm0,16.484H1.338V15.313H2.676Z" transform="translate(349.5 105.5) rotate(90)" fill="#12284c"/>
    <path id="Path_3262" data-name="Path 3262" d="M2.676,0H1.338V8.672H0v3.516H1.338V20H2.676V12.188H4.014V8.672H2.676Zm0,11.016H1.338V9.844H2.676Z" transform="translate(349.5 118.075) rotate(90)" fill="#12284c"/>
    <path id="Path_3263" data-name="Path 3263" d="M2.676,0H1.338V2.1H0V5.611H1.338V20H2.676V5.611H4.014V2.1H2.676Zm0,4.44H1.338V3.268H2.676Z" transform="translate(349.5 111.765) rotate(90)" fill="#12284c"/>
  </g>
</svg>
