<svg xmlns="http://www.w3.org/2000/svg" width="22.121" height="17.974" viewBox="0 0 22.121 17.974"><defs><style>.a{fill:#fff;}</style></defs><g transform="translate(0 0)"><path class="a" d="M22.121,50.128a9.455,9.455,0,0,1-2.613.716,4.51,4.51,0,0,0,2-2.507,9.063,9.063,0,0,1-2.876,1.1,4.535,4.535,0,0,0-7.845,3.1,4.67,4.67,0,0,0,.105,1.034A12.837,12.837,0,0,1,1.54,48.827a4.536,4.536,0,0,0,1.394,6.061,4.479,4.479,0,0,1-2.049-.559v.05a4.556,4.556,0,0,0,3.633,4.456,4.526,4.526,0,0,1-1.189.149,4.009,4.009,0,0,1-.859-.077,4.578,4.578,0,0,0,4.238,3.159A9.112,9.112,0,0,1,1.085,64,8.493,8.493,0,0,1,0,63.938a12.767,12.767,0,0,0,6.957,2.035A12.819,12.819,0,0,0,19.865,53.069c0-.2-.007-.394-.017-.586A9.047,9.047,0,0,0,22.121,50.128Z" transform="translate(0 -48)"/></g></svg>